<svg viewBox="0 0 200 200" xmlns="http://www.w3.org/2000/svg">
  <path fill="#FF0066" d="M44.8,-78.8C57.1,-70.5,65.4,-56.5,73.2,-42.4C81.1,-28.4,88.5,-14.2,88.6,0.1C88.8,14.3,81.6,28.7,71.2,38.3C60.8,48,47.2,53.1,34.8,60.5C22.4,67.9,11.2,77.8,-2.7,82.5C-16.6,87.1,-33.2,86.7,-47.1,80.1C-60.9,73.5,-72.1,60.8,-74.8,46.4C-77.5,32,-71.8,16,-67.8,2.3C-63.8,-11.4,-61.5,-22.8,-58.6,-36.8C-55.7,-50.8,-52.1,-67.4,-42.2,-77.1C-32.3,-86.8,-16.2,-89.6,0,-89.6C16.2,-89.7,32.5,-87.1,44.8,-78.8Z" transform="translate(100 100)" />
</svg>