<svg xmlns="http://www.w3.org/2000/svg" xmlns:xlink="http://www.w3.org/1999/xlink" version="1.1" width="256" height="256" viewBox="0 0 256 256" xml:space="preserve">

<defs>
</defs>
<g style="stroke: none; stroke-width: 0; stroke-dasharray: none; stroke-linecap: butt; stroke-linejoin: miter; stroke-miterlimit: 10; fill: none; fill-rule: nonzero; opacity: 1;" transform="translate(1.4065934065934016 1.4065934065934016) scale(2.81 2.81)" >
	<path d="M 50.25 79.394 h 10.705 l 0 -45.298 c 0 -9.608 -3.108 -18.959 -8.861 -26.655 l -3.45 -4.616 c -1.82 -2.435 -5.469 -2.435 -7.289 0 l -3.45 4.616 c -5.752 7.696 -8.861 17.047 -8.861 26.655 l 0 45.298 H 45" style="stroke: none; stroke-width: 1; stroke-dasharray: none; stroke-linecap: butt; stroke-linejoin: miter; stroke-miterlimit: 10; fill: rgb(181,231,234); fill-rule: nonzero; opacity: 1;" transform=" matrix(1 0 0 1 0 0) " stroke-linecap="round" />
	<path d="M 21.179 59.601 l 7.866 -6.588 l 0 26.382 L 17.577 89 l 0 -21.682 C 17.577 64.339 18.896 61.513 21.179 59.601 z" style="stroke: none; stroke-width: 1; stroke-dasharray: none; stroke-linecap: butt; stroke-linejoin: miter; stroke-miterlimit: 10; fill: rgb(221,67,67); fill-rule: nonzero; opacity: 1;" transform=" matrix(1 0 0 1 0 0) " stroke-linecap="round" />
	<path d="M 60.955 53.013 l 7.866 6.588 c 2.284 1.913 3.603 4.738 3.603 7.717 l 0 21.682 l -11.468 -9.606 L 60.955 53.013 z" style="stroke: none; stroke-width: 1; stroke-dasharray: none; stroke-linecap: butt; stroke-linejoin: miter; stroke-miterlimit: 10; fill: rgb(221,67,67); fill-rule: nonzero; opacity: 1;" transform=" matrix(1 0 0 1 0 0) " stroke-linecap="round" />
	<circle cx="44.998" cy="36.558" r="6.098" style="stroke: none; stroke-width: 1; stroke-dasharray: none; stroke-linecap: butt; stroke-linejoin: miter; stroke-miterlimit: 10; fill: rgb(255,255,255); fill-rule: nonzero; opacity: 1;" transform="  matrix(1 0 0 1 0 0) "/>
	<path d="M 41.355 2.826 l -3.45 4.616 c -3.736 4.998 -6.348 10.697 -7.727 16.708 h 29.642 c -1.378 -6.011 -3.991 -11.71 -7.727 -16.708 l -3.45 -4.616 C 46.825 0.391 43.175 0.391 41.355 2.826 z" style="stroke: none; stroke-width: 1; stroke-dasharray: none; stroke-linecap: butt; stroke-linejoin: miter; stroke-miterlimit: 10; fill: rgb(221,67,67); fill-rule: nonzero; opacity: 1;" transform=" matrix(1 0 0 1 0 0) " stroke-linecap="round" />
	<path d="M 60.955 80.395 H 50.25 c -0.553 0 -1 -0.447 -1 -1 s 0.447 -1 1 -1 h 9.705 V 34.097 c 0 -9.33 -3.076 -18.583 -8.661 -26.056 l -3.45 -4.616 C 47.167 2.519 46.131 2 45 2 h 0 c -1.13 0 -2.167 0.519 -2.844 1.425 l -3.45 4.616 c -5.585 7.473 -8.661 16.727 -8.661 26.056 v 44.298 H 45 c 0.552 0 1 0.447 1 1 s -0.448 1 -1 1 H 29.045 c -0.552 0 -1 -0.447 -1 -1 V 34.097 c 0 -9.758 3.217 -19.437 9.06 -27.253 l 3.45 -4.616 C 41.612 0.812 43.233 0 45 0 c 0 0 0 0 0 0 c 1.767 0 3.387 0.812 4.445 2.228 l 3.45 4.616 c 5.842 7.816 9.06 17.495 9.06 27.253 v 45.298 C 61.955 79.947 61.508 80.395 60.955 80.395 z" style="stroke: none; stroke-width: 1; stroke-dasharray: none; stroke-linecap: butt; stroke-linejoin: miter; stroke-miterlimit: 10; fill: rgb(0,0,0); fill-rule: nonzero; opacity: 1;" transform=" matrix(1 0 0 1 0 0) " stroke-linecap="round" />
	<path d="M 17.577 90 c -0.144 0 -0.288 -0.031 -0.423 -0.094 c -0.352 -0.164 -0.577 -0.518 -0.577 -0.906 V 67.318 c 0 -3.283 1.443 -6.375 3.96 -8.484 l 0 0 l 7.866 -6.588 c 0.298 -0.248 0.714 -0.303 1.065 -0.14 c 0.352 0.164 0.577 0.518 0.577 0.906 v 26.382 c 0 0.296 -0.131 0.576 -0.358 0.767 l -11.468 9.605 C 18.035 89.92 17.807 90 17.577 90 z M 21.821 60.367 c -2.062 1.728 -3.245 4.262 -3.245 6.951 v 19.54 l 9.468 -7.931 V 55.154 L 21.821 60.367 z" style="stroke: none; stroke-width: 1; stroke-dasharray: none; stroke-linecap: butt; stroke-linejoin: miter; stroke-miterlimit: 10; fill: rgb(0,0,0); fill-rule: nonzero; opacity: 1;" transform=" matrix(1 0 0 1 0 0) " stroke-linecap="round" />
	<path d="M 72.424 90 c -0.23 0 -0.459 -0.08 -0.642 -0.233 l -11.469 -9.605 c -0.228 -0.19 -0.358 -0.471 -0.358 -0.767 V 53.013 c 0 -0.389 0.225 -0.742 0.577 -0.906 c 0.352 -0.163 0.767 -0.108 1.065 0.14 l 7.865 6.588 c 2.517 2.108 3.961 5.201 3.961 8.484 V 89 c 0 0.389 -0.225 0.742 -0.577 0.906 C 72.712 89.969 72.567 90 72.424 90 z M 61.955 78.928 l 9.469 7.931 v -19.54 c 0 -2.69 -1.183 -5.224 -3.245 -6.951 l -6.224 -5.213 V 78.928 z" style="stroke: none; stroke-width: 1; stroke-dasharray: none; stroke-linecap: butt; stroke-linejoin: miter; stroke-miterlimit: 10; fill: rgb(0,0,0); fill-rule: nonzero; opacity: 1;" transform=" matrix(1 0 0 1 0 0) " stroke-linecap="round" />
	<path d="M 59.827 25.15 H 35.891 c -0.552 0 -1 -0.448 -1 -1 s 0.448 -1 1 -1 h 23.937 c 0.553 0 1 0.448 1 1 S 60.38 25.15 59.827 25.15 z" style="stroke: none; stroke-width: 1; stroke-dasharray: none; stroke-linecap: butt; stroke-linejoin: miter; stroke-miterlimit: 10; fill: rgb(0,0,0); fill-rule: nonzero; opacity: 1;" transform=" matrix(1 0 0 1 0 0) " stroke-linecap="round" />
	<path d="M 45 43.652 c -3.914 0 -7.098 -3.184 -7.098 -7.098 c 0 -3.914 3.184 -7.098 7.098 -7.098 c 3.914 0 7.098 3.184 7.098 7.098 C 52.098 40.468 48.914 43.652 45 43.652 z M 45 31.456 c -2.811 0 -5.098 2.287 -5.098 5.098 s 2.287 5.098 5.098 5.098 c 2.811 0 5.098 -2.287 5.098 -5.098 S 47.811 31.456 45 31.456 z" style="stroke: none; stroke-width: 1; stroke-dasharray: none; stroke-linecap: butt; stroke-linejoin: miter; stroke-miterlimit: 10; fill: rgb(0,0,0); fill-rule: nonzero; opacity: 1;" transform=" matrix(1 0 0 1 0 0) " stroke-linecap="round" />
	<path d="M 45 90 c -0.552 0 -1 -0.447 -1 -1 V 53.013 c 0 -0.553 0.448 -1 1 -1 s 1 0.447 1 1 V 89 C 46 89.553 45.552 90 45 90 z" style="stroke: none; stroke-width: 1; stroke-dasharray: none; stroke-linecap: butt; stroke-linejoin: miter; stroke-miterlimit: 10; fill: rgb(0,0,0); fill-rule: nonzero; opacity: 1;" transform=" matrix(1 0 0 1 0 0) " stroke-linecap="round" />
</g>
</svg>